<svg version="1.1" width="131" height="246" viewBox="-1 -1 131 246" xmlns="http://www.w3.org/2000/svg" xmlns:xlink="http://www.w3.org/1999/xlink">
  <defs>
    <linearGradient id="grad_1" x1="102.2099" y1="109.9112" x2="99.188" y2="88.125" gradientUnits="userSpaceOnUse">
      <stop offset="0" stop-color="#FFE3BD"/>
      <stop offset="0.2976" stop-color="#FDE1BA"/>
      <stop offset="0.5011" stop-color="#F7D9B1"/>
      <stop offset="0.6765" stop-color="#ECCBA2"/>
      <stop offset="0.836" stop-color="#DCB88C"/>
      <stop offset="0.9834" stop-color="#C99F71"/>
      <stop offset="1" stop-color="#C69C6D"/>
    </linearGradient>
    <radialGradient id="grad_2" cx="89.1831" cy="47.716" r="58.1362" gradientUnits="userSpaceOnUse">
      <stop offset="0" stop-color="#FFE3BD"/>
      <stop offset="0.2976" stop-color="#FDE1BA"/>
      <stop offset="0.5011" stop-color="#F7D9B1"/>
      <stop offset="0.6765" stop-color="#ECCBA2"/>
      <stop offset="0.836" stop-color="#DCB88C"/>
      <stop offset="0.9834" stop-color="#C99F71"/>
      <stop offset="1" stop-color="#C69C6D"/>
    </radialGradient>
    <linearGradient id="grad_3" x1="98.7492" y1="48.6429" x2="98.7492" y2="66.5016" gradientUnits="userSpaceOnUse">
      <stop offset="0" stop-color="#FFE3BD"/>
      <stop offset="0.2563" stop-color="#FEE0BB"/>
      <stop offset="0.4316" stop-color="#F9D7B5"/>
      <stop offset="0.5827" stop-color="#F2C8AB"/>
      <stop offset="0.7201" stop-color="#E8B29D"/>
      <stop offset="0.8482" stop-color="#DB968A"/>
      <stop offset="0.9679" stop-color="#CB7474"/>
      <stop offset="1" stop-color="#C66A6D"/>
    </linearGradient>
  </defs>
  <!-- Exported by Scratch - http://scratch.mit.edu/ -->
  <g id="ID0.5303876888938248">
    <path id="ID0.10441898368299007" fill="#D9E021" d="M 140.500 160 C 139.900 202 127.400 234 100.400 234 C 82.500 234 59.800 200 59.100 158 C 58.100 97 61.800 88.400 97.500 87 C 148 85 141.300 106 140.500 160 Z " transform="matrix(1.0655021667480469, 0, 0, 1.0655021667480469, -62.85, -5.3)"/>
    <path id="ID0.5727184279821813" fill="url(#grad_1)" d="M 86.200 88.400 C 92.700 90 84.300 69 99.500 69 C 112.400 69 103.900 88 112.400 88.400 C 112.400 98.100 108.700 104 99.500 104 C 90.300 104 86.200 94 86.200 88.400 Z " transform="matrix(1.0655021667480469, 0, 0, 1.0655021667480469, -62.85, -5.3)"/>
    <path id="ID0.8581864777952433" fill="#EDCDAE" d="M 71.800 48.100 C 72.766 48.100 73.641 49.411 74.274 51.529 C 74.908 53.647 75.300 56.572 75.300 59.800 C 75.300 63.028 74.908 65.953 74.274 68.071 C 73.641 70.189 72.766 71.500 71.800 71.500 C 70.834 71.500 69.959 70.189 69.326 68.071 C 68.692 65.953 68.300 63.028 68.300 59.800 C 68.300 56.572 68.692 53.647 69.326 51.529 C 69.959 49.411 70.834 48.100 71.800 48.100 Z " transform="matrix(1.052076816558838, -0.16834935545921326, 0.16834935545921326, 1.052076816558838, -71.9, 7.5)"/>
    <path id="ID0.2709831795655191" fill="#EDCDAE" d="M 125.200 56.300 C 128.428 56.300 131.353 56.692 133.471 57.326 C 135.589 57.959 136.900 58.834 136.900 59.800 C 136.900 60.766 135.589 61.641 133.471 62.274 C 131.353 62.908 128.428 63.300 125.200 63.300 C 121.972 63.300 119.047 62.908 116.929 62.274 C 114.811 61.641 113.500 60.766 113.500 59.800 C 113.500 58.834 114.811 57.959 116.929 57.326 C 119.047 56.692 121.972 56.300 125.200 56.300 Z " transform="matrix(0.16834935545921326, -1.052076816558838, 1.052076816558838, 0.16834935545921326, -13.4, 180)"/>
    <path id="ID0.4511154964566231" fill="url(#grad_2)" d="M 124.600 49 C 124.600 71.400 109.200 87 99.300 87 C 90.400 87 72.200 71.400 72.200 49 C 72.200 26.600 79.600 13 97.900 13 C 116.200 13 124.600 26.600 124.600 49 Z " transform="matrix(1.0655021667480469, 0, 0, 1.0655021667480469, -62.85, -5.3)"/>
    <g id="ID0.026082284282892942">
      <path id="ID0.007711631711572409" fill="url(#grad_3)" d="M 101.600 51.500 C 101.600 56.600 109.100 64.400 98.300 64 C 89.400 63.700 95 56.600 95 51.500 " transform="matrix(1.0655021667480469, 0, 0, 1.0655021667480469, -62.85, -5.3)"/>
      <path id="ID0.30366097623482347" fill="#E8A27C" d="M 101.600 51.500 C 101.800 52.900 102.300 54.200 102.800 55.400 C 103.300 56.700 104 57.900 104.400 59.300 C 104.600 60 104.800 60.800 104.600 61.600 C 104.500 62.400 104 63.300 103.300 63.700 C 102.600 64.200 101.800 64.300 101.100 64.500 C 100.400 64.600 99.600 64.600 98.900 64.600 C 97.500 64.600 96 64.500 94.500 63.700 C 93.800 63.300 93.200 62.600 92.900 61.800 C 92.600 61 92.700 60.200 92.800 59.500 C 93.200 56.600 94.700 54.200 95 51.400 C 95.200 54.200 94 57 93.800 59.600 C 93.800 60.200 93.800 60.900 94 61.400 C 94.200 61.900 94.600 62.300 95.100 62.600 C 96.100 63.200 97.500 63.200 98.900 63.300 C 100.200 63.300 101.600 63.200 102.600 62.700 C 103.100 62.400 103.400 62 103.500 61.400 C 103.600 60.800 103.500 60.200 103.400 59.500 C 102.900 57 101.500 54.300 101.600 51.500 Z " transform="matrix(1.0655021667480469, 0, 0, 1.0655021667480469, -62.85, -5.3)"/>
    </g>
    <g id="ID0.9568220311775804">
      <path id="ID0.6978422803804278" fill="#FFFFFF" d="M 89.500 44 C 90.410 44 91.235 44.560 91.833 45.465 C 92.430 46.371 92.800 47.621 92.800 49 C 92.800 50.379 92.430 51.629 91.833 52.535 C 91.235 53.440 90.410 54 89.500 54 C 88.590 54 87.765 53.440 87.167 52.535 C 86.570 51.629 86.200 50.379 86.200 49 C 86.200 47.621 86.570 46.371 87.167 45.465 C 87.765 44.560 88.590 44 89.500 44 Z " transform="matrix(1.0655021667480469, 0, 0, 1.0655021667480469, -62.85, -5.3)"/>
      <path id="ID0.364908164832741" d="M 91.800 49 C 90.800 49 89.900 47.700 89.900 46.100 C 89.900 45.400 90.100 44.700 90.400 44.200 C 90.100 44.100 89.800 44 89.400 44 C 87.600 44 86.100 46.200 86.100 49 C 86.100 51.800 87.600 54 89.400 54 C 91.200 54 92.700 51.800 92.700 49 C 92.700 48.900 92.700 48.700 92.700 48.600 C 92.500 48.900 92.100 49 91.800 49 Z " transform="matrix(1.0655021667480469, 0, 0, 1.0655021667480469, -62.85, -5.3)"/>
    </g>
    <g id="ID0.24560474138706923">
      <path id="ID0.8885828945785761" fill="#FFFFFF" d="M 106.300 44 C 107.210 44 108.035 44.560 108.633 45.465 C 109.230 46.371 109.600 47.621 109.600 49 C 109.600 50.379 109.230 51.629 108.633 52.535 C 108.035 53.440 107.210 54 106.300 54 C 105.390 54 104.565 53.440 103.967 52.535 C 103.370 51.629 103 50.379 103 49 C 103 47.621 103.370 46.371 103.967 45.465 C 104.565 44.560 105.390 44 106.300 44 Z " transform="matrix(1.0655021667480469, 0, 0, 1.0655021667480469, -62.85, -5.3)"/>
      <path id="ID0.4497147505171597" d="M 108.700 49 C 107.700 49 106.800 47.700 106.800 46.100 C 106.800 45.400 107 44.700 107.300 44.200 C 107 44.100 106.700 44 106.300 44 C 104.500 44 103 46.200 103 49 C 103 51.800 104.500 54 106.300 54 C 108.100 54 109.600 51.800 109.600 49 C 109.600 48.900 109.600 48.700 109.600 48.600 C 109.300 48.900 109 49 108.700 49 Z " transform="matrix(1.0655021667480469, 0, 0, 1.0655021667480469, -62.85, -5.3)"/>
    </g>
    <path id="ID0.6859762608073652" fill="#E8A27C" d="M 82.400 65 C 83.100 66.600 84.200 67.900 85.500 69 C 86.800 70.100 88.200 71 89.800 71.600 C 90.600 71.900 91.400 72.100 92.200 72.400 C 93 72.600 93.800 72.800 94.700 72.800 L 96 73 L 97.300 73 C 98.100 73.100 99 73 99.800 73 C 101.500 73 103.200 72.700 104.800 72.400 C 106.400 72 108 71.500 109.500 70.700 C 111 69.900 112.400 69 113.700 67.900 C 115 66.800 116.100 65.500 117.100 64 C 115.600 67.100 113 69.700 109.900 71.400 C 108.400 72.300 106.700 72.900 105 73.400 C 103.300 73.800 101.500 74.100 99.800 74.100 C 96.300 74.200 92.700 73.900 89.500 72.400 C 87.900 71.700 86.400 70.700 85.200 69.400 C 84 68.100 82.900 66.700 82.400 65 Z " transform="matrix(1.0655021667480469, 0, 0, 1.0655021667480469, -62.85, -5.3)"/>
    <path id="ID0.5793065442703664" d="M 112.600 38.300 C 111.200 37.700 109.800 37.200 108.500 37 C 107.800 36.900 107.200 37 106.700 37.200 C 106.100 37.500 105.700 38 105.100 38.600 C 105.100 37.800 105.400 37 106.200 36.400 C 106.900 35.900 107.900 35.800 108.700 35.900 C 109.500 36 110.200 36.300 110.900 36.700 C 111.500 37.200 112.100 37.700 112.600 38.300 Z " transform="matrix(1.0655021667480469, 0, 0, 1.0655021667480469, -62.85, -5.3)"/>
    <path id="ID0.5745882149785757" d="M 82.300 39.900 C 82.700 39.200 83.200 38.700 83.800 38.100 C 84.400 37.600 85.100 37.200 85.900 36.900 C 86.700 36.600 87.600 36.600 88.500 37 C 89.300 37.400 89.700 38.200 89.900 39 C 89.300 38.500 88.700 38.100 88.100 37.900 C 87.500 37.700 86.900 37.800 86.300 38 C 85.700 38.200 85 38.500 84.400 38.800 C 83.600 39.200 83 39.500 82.300 39.900 Z " transform="matrix(1.0655021667480469, 0, 0, 1.0655021667480469, -62.85, -5.3)"/>
    <path id="ID0.4469004929997027" fill="none" stroke="#000000" stroke-width="0.9675" d="M 81.500 47.500 C 81.500 47.500 84.200 44.100 89.900 44.400 " transform="matrix(1.0655021667480469, 0, 0, 1.0655021667480469, -62.85, -5.3)"/>
    <path id="ID0.9544964279048145" fill="none" stroke="#000000" stroke-width="0.9675" d="M 114.200 47.500 C 114.200 47.500 111.500 44.100 105.800 44.500 " transform="matrix(1.0655021667480469, 0, 0, 1.0655021667480469, -62.85, -5.3)"/>
    <path id="ID0.27599120512604713" fill="#ED1C24" opacity="0.34" d="M 91.300 72.600 C 91.300 72.600 92.300 76.500 96 76.500 C 99.700 76.500 102.600 76.500 102.600 76.500 C 102.600 76.500 105.400 77.700 106.300 72.600 C 104.400 71.500 100.400 69 100.400 69 L 98.800 70.500 L 96.900 69.500 L 91.300 72.600 Z " transform="matrix(1.0655021667480469, 0, 0, 1.0655021667480469, -62.85, -5.3)"/>
    <path id="ID0.48128462489694357" d="M 114.300 35 L 111.500 13 C 106.800 9 91.800 10 86.200 13 C 86.200 13 82.500 26 82.500 35 L 114.300 35 Z " transform="matrix(1.0655021667480469, 0, 0, 1.0655021667480469, -62.85, -5.3)"/>
    <path id="ID0.5625089984387159" d="M 98.100 5 C 144.900 5 133.700 60 133.700 60 L 124.300 60 C 124.300 60 121 68.700 120.600 66 C 119.700 60.900 119.900 23 106.600 12.900 C 103.200 10.300 93.300 10.200 89.900 12.900 C 79.600 21.200 76.800 60.900 75.900 66 C 75.400 68.700 72.200 60 72.200 60 L 62.800 60 C 62.800 60 51.600 5 98.400 5 " transform="matrix(1.0655021667480469, 0, 0, 1.0655021667480469, -62.85, -5.3)"/>
    <g id="ID0.18955863267183304">
      <path id="ID0.05050921021029353" fill="#8CC63F" stroke="#009245" stroke-width="2.5873" d="M 116.800 124.900 C 116.800 124.900 105.800 131 105.800 118.800 C 94.800 116.900 88.400 104.700 96.300 99 C 93.100 84.900 99.500 80.100 108.900 82 C 110.500 70.700 117.600 73.500 123.900 74.500 C 127.800 64.100 146 66 148.400 76.400 C 157.900 74.500 164.200 88.700 157.900 95.300 C 167.400 101.900 165 107.600 160.300 116 C 155.600 124.400 143.700 118.800 143.700 118.800 C 143.700 118.800 150 133.900 139.800 134.800 C 129.500 135.700 124 126.300 124 126.300 " transform="matrix(1.0655021667480469, 0, 0, 1.0655021667480469, -62.85, -5.3)"/>
      <path id="ID0.34031099639832973" fill="#8CC63F" stroke="#009245" stroke-width="2.5873" d="M 127.900 99 L 105.800 150.800 C 105.800 150.800 100.300 165.900 113.700 163.100 C 113.700 163.100 124.700 112.200 134.200 104.700 " transform="matrix(1.0655021667480469, 0, 0, 1.0655021667480469, -62.85, -5.3)"/>
      <path id="ID0.23405788280069828" fill="none" stroke="#009245" stroke-width="2.5873" d="M 104.800 155 C 104.800 155 110.500 152.700 113.700 163.100 " transform="matrix(1.0655021667480469, 0, 0, 1.0655021667480469, -62.85, -5.3)"/>
    </g>
    <g id="ID0.7032618587836623">
      <path id="ID0.8449888764880598" fill="#8CC63F" stroke="#009245" stroke-width="2.0525" d="M 148.900 144.500 C 148.900 144.500 153.800 154.500 158.400 146.500 C 166.300 151.200 175.100 146.700 172.100 138.700 C 179.500 131.200 177.200 124.700 170.300 120.800 C 173.600 112.600 167.900 110.600 163.400 107.800 C 164.800 98.900 152.200 90.300 146.700 95.800 C 141.200 89.500 131.800 95.300 133.400 103 C 124.700 102.200 124.100 107.200 124 115.200 C 123.900 123.200 133.700 126 133.700 126 C 133.700 126 123.900 132.400 130.200 138.600 C 136.500 144.800 143.700 141.600 143.700 141.600 " transform="matrix(1.0655021667480469, 0, 0, 1.0655021667480469, -62.85, -5.3)"/>
      <path id="ID0.5488024624064565" fill="#8CC63F" stroke="#009245" stroke-width="2.0525" d="M 151.500 121.700 L 146.300 167.400 C 146.300 167.400 144.200 180.200 136.500 171.100 C 136.500 171.100 148.600 131.900 145.200 121.900 " transform="matrix(1.0655021667480469, 0, 0, 1.0655021667480469, -62.85, -5.3)"/>
      <path id="ID0.131522917188704" fill="none" stroke="#009245" stroke-width="2.0525" d="M 145.400 170.600 C 145.400 170.600 142.500 166 136.600 171.100 " transform="matrix(1.0655021667480469, 0, 0, 1.0655021667480469, -62.85, -5.3)"/>
    </g>
    <g id="ID0.36865131417289376">
      <path id="ID0.39022396318614483" fill="#8CC63F" stroke="#009245" stroke-width="2.0525" d="M 132.400 139.800 C 132.400 139.800 137.300 149.800 141.900 141.800 C 149.800 146.500 158.600 142 155.600 134 C 163 126.500 160.700 120 153.800 116.100 C 157.100 107.900 151.400 105.900 146.900 103.100 C 148.300 94.200 135.700 85.600 130.200 91.100 C 124.700 84.800 115.300 90.600 116.900 98.300 C 108.200 97.500 107.600 102.500 107.500 110.500 C 107.400 118.500 117.200 121.300 117.200 121.300 C 117.200 121.300 107.400 127.700 113.700 133.900 C 120 140.100 127.200 136.900 127.200 136.900 " transform="matrix(1.0655021667480469, 0, 0, 1.0655021667480469, -62.85, -5.3)"/>
      <path id="ID0.38411443307995796" fill="#8CC63F" stroke="#009245" stroke-width="2.0525" d="M 135 116.900 L 129.800 162.600 C 129.800 162.600 127.700 175.400 120 166.300 C 120 166.300 132.100 127.100 128.700 117.100 " transform="matrix(1.0655021667480469, 0, 0, 1.0655021667480469, -62.85, -5.3)"/>
      <path id="ID0.7499591093510389" fill="none" stroke="#009245" stroke-width="2.0525" d="M 128.800 165.900 C 128.800 165.900 125.900 161.300 120 166.400 " transform="matrix(1.0655021667480469, 0, 0, 1.0655021667480469, -62.85, -5.3)"/>
    </g>
    <path id="ID0.6283095935359597" fill="none" stroke="#B3B3B3" stroke-width="2.0525" d="M 171.300 116.900 C 171.300 116.900 176.400 116.400 179.600 121.100 C 185.100 130.500 100.700 125.800 100.700 125.800 C 100.700 125.800 88.900 127.700 104.600 119.200 " transform="matrix(1.0655021667480469, 0, 0, 1.0655021667480469, -62.85, -5.3)"/>
    <path id="ID0.8204376976937056" fill="none" stroke="#B3B3B3" stroke-width="2.0525" d="M 96.400 126.200 C 96.400 126.200 105.400 124.900 99.900 145.700 C 94.400 166.500 103.800 180.600 114.100 180.600 C 124.400 180.600 128.300 172.100 133.800 176.800 C 139.300 181.500 152.700 179.600 154.300 168.300 C 155.900 157 150.400 167.400 164.600 168.300 C 178.800 169.200 173.300 155.100 179.600 121.200 " transform="matrix(1.0655021667480469, 0, 0, 1.0655021667480469, -62.85, -5.3)"/>
    <path id="ID0.5442635705694556" fill="#B3B3B3" opacity="0.6" d="M 96.400 126.200 C 96.400 126.200 105.400 124.900 99.900 145.700 C 94.400 166.500 103.800 180.600 114.100 180.600 C 124.400 180.600 128.300 172.100 133.800 176.800 C 139.300 181.500 152.700 179.600 154.300 168.300 C 155.900 157 150.400 167.400 164.600 168.300 C 178.800 169.200 173.300 155.100 179.600 121.200 C 179.600 121.200 168.600 124 137 123.100 C 105.400 122.200 96.400 126.200 96.400 126.200 Z " transform="matrix(1.0655021667480469, 0, 0, 1.0655021667480469, -62.85, -5.3)"/>
  </g>
</svg>