<?xml version="1.0" encoding="utf-8"?>
<!-- Generator: Adobe Illustrator 22.0.1, SVG Export Plug-In . SVG Version: 6.00 Build 0)  -->
<svg version="1.1" baseProfile="basic" id="Camada_1"
	 xmlns="http://www.w3.org/2000/svg" xmlns:xlink="http://www.w3.org/1999/xlink" x="0px" y="0px" viewBox="0 0 115.3 39.3"
	 xml:space="preserve">
<g>
	<path fill="#FF0000" stroke="#F2F2F2" stroke-width="2" stroke-miterlimit="10" d="M100.4,33H14.9c-5,0-9.1-4.1-9.1-9.1v-8.6
		c0-5,4.1-9.1,9.1-9.1h85.5c5,0,9.1,4.1,9.1,9.1v8.6C109.5,28.9,105.4,33,100.4,33z"/>
	<g>
		<path fill="#D0E0E0" d="M41.6,23c0.1,0.3,0.2,0.6,0.3,0.8c-0.3,0.1-0.6,0.2-0.9,0.3c-0.3,0.1-0.6,0.1-1,0.1c-0.5,0-1-0.1-1.4-0.3
			c-0.4-0.2-0.8-0.4-1.1-0.7c-0.3-0.3-0.5-0.7-0.7-1.2c-0.2-0.5-0.2-1-0.2-1.5c0-0.6,0.1-1.1,0.2-1.6c0.2-0.5,0.4-0.9,0.7-1.2
			c0.3-0.3,0.6-0.6,1.1-0.8c0.4-0.2,0.9-0.3,1.4-0.3c0.4,0,0.7,0,1,0.1c0.3,0.1,0.5,0.1,0.7,0.2c0,0.2,0,0.3-0.1,0.4
			c0,0.1-0.1,0.3-0.2,0.4c-0.1,0-0.2-0.1-0.3-0.1c-0.1,0-0.2-0.1-0.3-0.1c-0.1,0-0.2,0-0.4,0c-0.1,0-0.3,0-0.5,0
			c-0.7,0-1.3,0.3-1.7,0.7c-0.4,0.5-0.6,1.2-0.6,2.2c0,0.5,0.1,0.9,0.2,1.2c0.1,0.4,0.3,0.6,0.5,0.9c0.2,0.2,0.5,0.4,0.8,0.5
			c0.3,0.1,0.6,0.2,1,0.2c0.3,0,0.5,0,0.8-0.1C41.1,23.1,41.3,23,41.6,23z"/>
		<path fill="#D0E0E0" d="M46,24.1c-0.5,0-1-0.1-1.4-0.3s-0.7-0.4-1-0.8c-0.3-0.3-0.4-0.7-0.6-1.2s-0.2-1-0.2-1.5s0.1-1,0.2-1.5
			c0.1-0.5,0.3-0.9,0.6-1.2c0.3-0.3,0.6-0.6,1-0.8s0.8-0.3,1.4-0.3s1,0.1,1.4,0.3c0.4,0.2,0.7,0.5,1,0.8c0.3,0.3,0.4,0.7,0.6,1.2
			c0.1,0.5,0.2,1,0.2,1.5s-0.1,1.1-0.2,1.5c-0.1,0.5-0.3,0.9-0.6,1.2c-0.3,0.3-0.6,0.6-1,0.8C47,24,46.6,24.1,46,24.1z M46,23.3
			c0.3,0,0.6-0.1,0.9-0.2c0.2-0.1,0.5-0.3,0.6-0.6c0.2-0.2,0.3-0.5,0.4-0.9c0.1-0.4,0.1-0.7,0.1-1.2c0-0.4,0-0.8-0.1-1.2
			s-0.2-0.7-0.4-0.9c-0.2-0.2-0.4-0.4-0.6-0.6c-0.2-0.1-0.5-0.2-0.9-0.2s-0.6,0.1-0.9,0.2c-0.2,0.1-0.5,0.3-0.6,0.6
			c-0.2,0.2-0.3,0.5-0.4,0.9s-0.1,0.8-0.1,1.2c0,0.4,0,0.8,0.1,1.2c0.1,0.4,0.2,0.7,0.4,0.9c0.2,0.3,0.4,0.4,0.6,0.6
			C45.4,23.2,45.7,23.3,46,23.3z"/>
		<path fill="#D0E0E0" d="M50.9,16.7c0.1,0,0.3,0,0.4,0c0.1,0,0.2,0,0.4,0c0.1,0,0.2,0,0.4,0c0.1,0,0.3,0,0.4,0c0.3,0,0.7,0,1,0.1
			c0.3,0.1,0.6,0.2,0.9,0.4c0.3,0.2,0.5,0.4,0.6,0.7c0.2,0.3,0.2,0.7,0.2,1.1c0,0.3,0,0.5-0.1,0.7S55,20,54.8,20.1
			c-0.1,0.2-0.3,0.3-0.5,0.4c-0.2,0.1-0.3,0.2-0.5,0.3L53.8,21l2.1,3.1c-0.2,0-0.4,0-0.6,0c-0.2,0-0.4,0-0.5,0l-2.3-3.4v0l0.1,0
			c0.2,0,0.4-0.1,0.6-0.2c0.2-0.1,0.4-0.2,0.6-0.3c0.2-0.1,0.3-0.3,0.4-0.5c0.1-0.2,0.2-0.4,0.2-0.7c0-0.5-0.1-0.8-0.4-1.1
			s-0.7-0.4-1.2-0.4c-0.1,0-0.2,0-0.3,0c-0.1,0-0.2,0-0.3,0V24c-0.1,0-0.2,0-0.2,0c-0.1,0-0.2,0-0.3,0s-0.2,0-0.3,0
			c-0.1,0-0.2,0-0.3,0V16.7z"/>
		<path fill="#D0E0E0" d="M57.3,16.7c0.1,0,0.3,0,0.4,0c0.1,0,0.2,0,0.4,0c0.1,0,0.2,0,0.4,0c0.1,0,0.3,0,0.4,0c0.3,0,0.7,0,1,0.1
			c0.3,0.1,0.6,0.2,0.9,0.4c0.3,0.2,0.5,0.4,0.6,0.7c0.2,0.3,0.2,0.7,0.2,1.1c0,0.3,0,0.5-0.1,0.7s-0.2,0.4-0.3,0.6
			c-0.1,0.2-0.3,0.3-0.5,0.4c-0.2,0.1-0.3,0.2-0.5,0.3L60.1,21l2.1,3.1c-0.2,0-0.4,0-0.6,0c-0.2,0-0.4,0-0.5,0l-2.3-3.4v0l0.1,0
			c0.2,0,0.4-0.1,0.6-0.2c0.2-0.1,0.4-0.2,0.6-0.3c0.2-0.1,0.3-0.3,0.4-0.5c0.1-0.2,0.2-0.4,0.2-0.7c0-0.5-0.1-0.8-0.4-1.1
			s-0.7-0.4-1.2-0.4c-0.1,0-0.2,0-0.3,0c-0.1,0-0.2,0-0.3,0V24c-0.1,0-0.2,0-0.2,0c-0.1,0-0.2,0-0.3,0s-0.2,0-0.3,0
			c-0.1,0-0.2,0-0.3,0V16.7z"/>
		<path fill="#D0E0E0" d="M63.6,16.7c0.1,0,0.2,0,0.3,0s0.2,0,0.3,0s0.2,0,0.3,0c0.1,0,0.2,0,0.3,0V24c-0.1,0-0.2,0-0.2,0
			c-0.1,0-0.2,0-0.3,0c-0.1,0-0.2,0-0.3,0s-0.2,0-0.2,0V16.7z"/>
		<path fill="#D0E0E0" d="M70.9,20.3c0.1,0,0.2,0,0.3,0s0.2,0,0.3,0s0.2,0,0.3,0c0.1,0,0.2,0,0.2,0v3.6c-0.1,0.1-0.3,0.1-0.5,0.2
			S71.2,24,71,24.1c-0.2,0-0.4,0-0.5,0.1s-0.4,0-0.5,0c-0.5,0-1-0.1-1.5-0.3c-0.4-0.2-0.8-0.4-1.1-0.7c-0.3-0.3-0.5-0.7-0.7-1.2
			c-0.2-0.5-0.2-1-0.2-1.6c0-0.6,0.1-1.1,0.2-1.6c0.2-0.5,0.4-0.9,0.7-1.2c0.3-0.3,0.7-0.6,1.1-0.8c0.4-0.2,0.9-0.3,1.4-0.3
			c0.4,0,0.7,0,1,0.1c0.3,0.1,0.5,0.1,0.8,0.2c0,0.2,0,0.3-0.1,0.4s-0.1,0.3-0.2,0.4c-0.2-0.1-0.4-0.1-0.6-0.2
			c-0.2,0-0.5-0.1-0.8-0.1c-0.4,0-0.7,0.1-1,0.2c-0.3,0.1-0.5,0.3-0.7,0.6c-0.2,0.2-0.4,0.6-0.5,0.9c-0.1,0.4-0.2,0.8-0.2,1.2
			c0,0.5,0.1,0.9,0.2,1.2c0.1,0.3,0.3,0.6,0.5,0.9c0.2,0.2,0.5,0.4,0.8,0.5s0.6,0.2,1,0.2c0.2,0,0.4,0,0.6,0c0.2,0,0.3-0.1,0.4-0.1
			V20.3z"/>
		<path fill="#D0E0E0" d="M73.9,16.7h4c0,0.1,0,0.3,0,0.4c0,0.1,0,0.2,0,0.2c0,0.1,0,0.2,0,0.2h-3v2.1h2.4c0,0.1,0,0.1,0,0.2
			c0,0.1,0,0.2,0,0.2c0,0.1,0,0.2,0,0.2s0,0.2,0,0.2H75v2.5h3c0,0.1,0,0.3,0,0.4c0,0.1,0,0.2,0,0.2c0,0.1,0,0.2,0,0.2h-4.1V16.7z"/>
	</g>
</g>
</svg>
